<?xml version="1.0" encoding="utf-8"?>
<!-- Generator: Adobe Illustrator 19.0.0, SVG Export Plug-In . SVG Version: 6.00 Build 0)  -->
<svg version="1.1" id="Layer_1" xmlns="http://www.w3.org/2000/svg" xmlns:xlink="http://www.w3.org/1999/xlink" x="0px" y="0px"
	 viewBox="0 0 1207.8 278.6" style="enable-background:new 0 0 1207.8 278.6;" xml:space="preserve">
<style type="text/css">
	.st0{fill:#FFFFFF;}
	.st1{fill:#AC1E23;}
</style>
<g id="XMLID_58_">
	<g id="XMLID_2_">
		<path id="XMLID_9_" class="st0" d="M168.7,166.7c-0.8-1-1.5-2-2.2-3l-1.5-2.2c-9-7.8-15.8-17.5-20.3-28.9h-16
			c-23.3,0-42.6-5.3-42.6-33.6c0-28.9,19.3-33.2,42.6-33.2h14.2c0.2-0.9,0.4-1.8,0.7-2.7c0.2-0.9,0.5-1.9,0.7-2.8
			c0.4-1.6,1.4-3.8,3.8-5.6l8.9-7.5c3.1-4.5,6.9-8.7,11.4-12.6l7.9-6.7h-60.6C59.7,27.9,38.3,63,38.3,99c0,30.1,15.8,60.6,52.8,68.7
			h-1.9L27.1,250h59.7l55.9-79.8h19L168.7,166.7z"/>
		<path id="XMLID_13_" class="st0" d="M192.7,242.5l-1.9-2.9c-2.9-4.4-6-9.7-7.3-16.1c-1.8-3.3-3.5-6.1-5-8.8
			c-2.1-3.6-2.3-7.6-0.5-11.4c3.4-7.3,6.9-14.6,10.3-21.8c-0.5-0.1-1-0.3-1.5-0.4c-1.3-0.4-2.5-0.7-3.8-1l-16.3-4.1V250h30
			C195,247.5,193.7,245,192.7,242.5z"/>
	</g>
	<g id="XMLID_1_">
		<path id="XMLID_3_" class="st0" d="M497.1,92.7l28.3,37.5h-27.1l-25.4-36.3h-10.9v36.3h-22.3v-101H485c25.4,0,35.2,16,35.2,32.4
			c0,13.7-7.2,27.6-24,31.2H497.1z M461.9,46.3v30.4h17.2c10.6,0,19.4-2.4,19.4-15.3c0-13.1-8.8-15.1-19.4-15.1H461.9z"/>
		<path id="XMLID_7_" class="st0" d="M560.5,111.2h57v18.7H539V28.6h73.6v18.7h-52.1V70h46.1v19.6h-46.1V111.2z"/>
		<path id="XMLID_16_" class="st0" d="M633.4,29.1H677c26.1,0,45.8,16.5,45.8,49.9c0,29.3-15,51-45.8,51h-43.5V29.1z M655.6,111.3
			h19.8c12.9,0,25.2-7.9,25.2-30.2c0-20.4-7.2-33.4-29.1-33.4h-15.8V111.3z"/>
		<path id="XMLID_20_" class="st0" d="M736.7,29.1h47.5c19.2,0,32.2,6.2,32.2,25c0,10.2-4.7,16.7-13.7,21.1
			c12.4,3.5,18.5,13,18.5,25.6c0,20.5-17.4,29.3-35.6,29.3h-48.9V29.1z M758.9,69.9h22.5c7.9,0,13.6-3.5,13.6-12
			c0-9.5-7.3-11.6-15.3-11.6h-20.8V69.9z M758.9,112.7h23.7c8.6,0,16.4-2.8,16.4-13.3c0-10.3-6.4-14.4-16-14.4h-24.2V112.7z"/>
		<path id="XMLID_29_" class="st0" d="M837.2,29.1h22.2V130h-22.2V29.1z"/>
		<path id="XMLID_33_" class="st0" d="M935.4,92.7l28.3,37.5h-27.1l-25.4-36.3h-10.9v36.3h-22.3v-101h45.5c25.4,0,35.2,16,35.2,32.4
			c0,13.7-7.2,27.6-24,31.2H935.4z M900.3,46.3v30.4h17.2c10.6,0,19.4-2.4,19.4-15.3c0-13.1-8.8-15.1-19.4-15.1H900.3z"/>
		<path id="XMLID_37_" class="st0" d="M980,29.1h43.5c26.1,0,45.8,16.5,45.8,49.9c0,29.3-15,51-45.8,51H980V29.1z M1002.1,111.3
			h19.8c12.9,0,25.2-7.9,25.2-30.2c0-20.4-7.2-33.4-29.1-33.4h-15.8V111.3z"/>
		<path id="XMLID_42_" class="st0" d="M497.1,212.5l28.3,37.5h-27.1l-25.4-36.3h-10.9v36.3h-22.3v-101H485c25.4,0,35.2,16,35.2,32.4
			c0,13.7-7.2,27.6-24,31.2H497.1z M461.9,166.1v30.4h17.2c10.6,0,19.4-2.4,19.4-15.3c0-13.1-8.8-15.1-19.4-15.1H461.9z"/>
		<path id="XMLID_45_" class="st0" d="M586.5,251.1c-28.8,0-52.1-23.3-52.1-52.1c0-29,23.3-52.3,52.1-52.3
			c28.7,0,52.3,23.3,52.3,52.3C638.8,227.8,615.2,251.1,586.5,251.1z M555.7,198.9c0,16.8,14,30.8,30.8,30.8s30.5-14,30.5-30.8
			c0-16.8-13.7-31-30.5-31S555.7,182.1,555.7,198.9z"/>
		<path id="XMLID_48_" class="st0" d="M649.4,148.9h47.5c19.2,0,32.2,6.2,32.2,25c0,10.2-4.7,16.7-13.7,21.1
			c12.4,3.5,18.5,13,18.5,25.6c0,20.5-17.4,29.3-35.6,29.3h-48.9V148.9z M671.6,189.7h22.5c7.9,0,13.6-3.5,13.6-12
			c0-9.5-7.3-11.6-15.3-11.6h-20.8V189.7z M671.6,232.6h23.7c8.6,0,16.4-2.8,16.4-13.3c0-10.3-6.4-14.4-16-14.4h-24.2V232.6z"/>
		<path id="XMLID_52_" class="st0" d="M794.8,251.1c-28.8,0-52.1-23.3-52.1-52.1c0-29,23.3-52.3,52.1-52.3
			c28.7,0,52.3,23.3,52.3,52.3C847.1,227.8,823.5,251.1,794.8,251.1z M764,198.9c0,16.8,14,30.8,30.8,30.8c16.8,0,30.5-14,30.5-30.8
			c0-16.8-13.7-31-30.5-31C778,168,764,182.1,764,198.9z"/>
		<path id="XMLID_56_" class="st0" d="M885.6,167.5h-32.1V149h86.1v18.7h-31.8v82.1h-22.2V167.5z"/>
		<path id="XMLID_59_" class="st0" d="M952.3,148.9h22.2v100.9h-22.2V148.9z"/>
		<path id="XMLID_62_" class="st0" d="M1038.8,250.1c-28.3,0-51.2-22.9-51.2-51.2c0-28,22.9-51.2,51.2-51.2
			c19.4,0,35.8,10.7,44.4,26.1c-8.6,4.5-9.3,4.9-18.9,9.6c-4.9-8.6-14.6-14.6-25.4-14.6c-16.5,0-30,13.6-30,30c0,16.5,13.4,30,30,30
			c11.3,0,21.2-6.1,26.3-15.7c9.6,4.9,9.9,5.5,18.9,9.6C1075.4,239.1,1058.7,250.1,1038.8,250.1z"/>
		<path id="XMLID_64_" class="st0" d="M1112.8,219.8c2.3,13.3,14.1,15.1,22.3,15.1c7.8,0,19.6-2.3,19.6-12.6
			c0-21.5-60.1-7.6-60.1-45.4c0-20.8,19.5-30.5,37.7-30.5c21.1,0,40.4,9.2,40.4,32.5l-21.5-3.1c-2.7-11.7-13-12.2-19.9-12.2
			c-7.1,0-15.3,3-15.3,11.4c0,7.5,4.8,9.2,30.1,15.3c7.5,1.8,30,6.5,30,29.4c0,18.5-14.4,32.4-42,32.4c-22.6,0-43-11-43-35.9
			L1112.8,219.8z"/>
	</g>
	<path id="XMLID_35_" class="st0" d="M277.2,118.2c-0.8-0.6-1.7-1.1-2.5-1.7c1.3-1.3,2.7-2.2,4.4-2.3c0.4,0,0.9,0.2,1.1,0.4
		c0.9,1.1,1.9,2.2,2.5,3.5c1,2.2,1.8,4.6,2.6,6.9c0.1,0.2,0.1,0.5,0.1,0.9c-5.3-1.5-10.6-2.1-16.1-2c0.4-0.7,0.7-1.3,1-1.9
		c0.7-1.1,1.4-2.3,2.2-3.4c0.3-0.3,0.9-0.6,1.3-0.6c1.1,0,2.1,0.2,3.2,0.3C277.1,118.4,277.1,118.3,277.2,118.2z"/>
	<path id="XMLID_32_" class="st0" d="M270.3,126.1c3.3,0,6.5,0,9.6,0c0,0,0,0.1,0,0.1c-1.2,0.3-2.4,0.6-3.6,0.9
		c-0.5,0.1-1.1,0.3-1.6,0.5C273,128.3,271.7,127.9,270.3,126.1z"/>
	<path id="XMLID_31_" class="st0" d="M262.8,110.6c1.9-0.7,3-0.4,3.9,1.2C265.2,112.5,263.7,112,262.8,110.6z"/>
	<g id="XMLID_60_">
		<path id="XMLID_24_" class="st0" d="M1197.8,10v258.6H10V10H1197.8 M1207.8,0h-10H10H0v10v258.6v10h10h1187.8h10v-10V10V0
			L1207.8,0z"/>
	</g>
	<g id="XMLID_23_">
		<path id="XMLID_38_" class="st0" d="M273.4,183.6c-8.4,0.9-16.4,3.7-24.4,8.6c0,0.2,0,0.4,0,0.6c0.1,4.1,0.1,7.9,0.4,11.8
			c0.2,2.6,0.5,5.2,0.8,8c0.2,1.5,0.4,3.1,0.6,4.8c0.4,3.4-0.8,6.9-3.2,9.3c-3.2,3.3-6.5,6.7-9.7,10l-2.2,2.2l-6.1,6.2
			c-0.2,0.2-0.2,0.4-0.2,0.6v3.4c0,0.5,0.4,0.8,0.8,0.8h47.4c0.5,0,0.8-0.4,0.8-0.8v-65.3c0-0.5-0.5-0.9-1-0.8
			C276.1,183.3,274.8,183.5,273.4,183.6z"/>
		<path id="XMLID_39_" class="st0" d="M356.1,168c-0.2-0.2-0.4-0.3-0.7-0.3h-1.4c37-8.1,52.8-38.5,52.8-68.7
			c0-36-21.4-71.1-77.4-71.1h-99.2c-0.5,0-0.8,0.4-0.8,0.8v7.4c0,0.6,0.7,1,1.2,0.8l1-0.5c0.6-0.3,1.4,0.3,1.2,1l-3.4,14
			c0,0.1,0,0.1,0,0.2v26.3c0,0.6,0.6,1,1.1,0.8l4.9-1.5c0.6-0.2,1.1,0.3,1.1,0.9l-0.2,3.9c0,0.5,0.4,0.9,0.9,0.9
			c0.6-0.1,1.2-0.1,1.9-0.2c2.6-0.2,5.2-0.3,7.7-0.3c5.8,0,11.1,0.6,16.3,1.8c5.2,1.2,10,2.9,14.3,5c0.6,0.3,1.2-0.1,1.2-0.7V66.6
			c0-0.5,0.4-0.8,0.8-0.8h33.4c0.4,0,0.7-0.2,0.8-0.6c0.4-1.2,0.9-2.5,1.3-3.8l1.8-5.8c0-0.1,0.1-0.2,0.1-0.2c0,0,3.3-8,6.2-8.9
			c2.9-1,0.1,0,0.1,0s4,0.8,7.2,6.4s0.1,0.1,0.2,0.2l3.5,6.2l0,0c0.5,0.7,1.5,2.3,2,4.5c0.1,0.4,0.2,0.8,0.3,1.3
			c0.2,0.7,0.3,1.4,0.5,2.1c0.1,0.3,0.3,0.6,0.6,0.6c12.8,3.4,21.6,11.7,21.6,31.2c0,20.2-9.8,28.7-24,31.8
			c-0.3,0.1-0.5,0.2-0.6,0.5c-4.4,10.1-10,19.2-16.6,27c-4.3,5.2-8.9,9.5-13.6,13c-0.4,0.3-0.4,0.8-0.2,1.1l54,77.1
			c0.2,0.2,0.4,0.4,0.7,0.4h57.5c0.7,0,1.1-0.8,0.7-1.4L356.1,168z"/>
	</g>
	<path id="XMLID_10_" class="st1" d="M328.6,102.7c-1.5,0.8-2.9,1.5-4.4,2.3c0.6-2.3,1.1-4.3,1.5-6.3c1.8-8.5,2.2-17.1,1.4-25.8
		c-0.2-2.3-0.8-4.5-1.3-6.8c-0.1-0.6-0.6-1-0.9-1.6c-0.1,0-0.2,0-0.3,0.1c-6.9,21.9-19.4,39.6-39,52.2c-1-1.5-1.8-2.9-2.6-4.2
		c1.1-1.1,2.2-2.2,3.4-3.5c-1.7-1.7-3.2-3.5-5.1-5c-6.1-5.1-13.2-8.1-20.8-9.9c-6.8-1.6-13.8-1.8-20.7-1.2c-2.1,0.2-4.1,0.5-6.3,0.8
		c0.9,1.6,1.6,3,2.4,4.4c-3.7,1.4-7.4,2.7-11.3,4.1c0.2-3.7,0.4-7.3,0.6-11.1c-2.6,0.8-5.2,1.6-7.7,2.4c-2.5-12.9-2.8-25.9,0.4-39.1
		c-4.2,2-8.3,3.5-11.7,6.8c-0.5-13.3,1.2-26,3.9-38.8c-17.5,2.9-28.2,13.3-33.9,29.9c-0.4-3.5-0.8-6.6-1.2-9.8
		c-10,8.5-15.9,19.1-17.5,32.1c-1-3.9-2-7.9-3.1-11.8c-0.1,0.1-0.2,0.1-0.2,0.2c-0.2,0.9-0.5,1.8-0.7,2.7
		c-2.2,8.8-4.3,17.5-4.7,26.6c-0.4,9.7,0.3,19.3,2.9,28.8c3.6,13.4,10.5,24.7,21.2,33.6c1.1,0.9,2.2,1.8,3.4,2.7
		c-0.3,0.1-0.5,0.2-0.6,0.3c-0.2,0.1-0.4,0.2-0.6,0.3c3.3,5,7.7,8.4,13.5,10.3c-1.2,0.6-2.1,1-3.2,1.6c6,1.5,11.6,3.5,17.7,3.7
		c-0.2,0.4-0.3,0.7-0.4,1c-5.2,11-10.3,22-15.5,33c-0.3,0.6-0.3,1.1,0.1,1.7c1.9,3.2,3.7,6.4,5.5,9.6c0.3,0.6,0.6,1.2,0.7,1.9
		c0.9,4.9,3.3,9,6,13.1c0.2-0.2,0.3-0.4,0.4-0.5c0.1-0.2,0.2-0.4,0.3-0.6c1.6,5.7,4.2,10.6,7.4,15.5c1.8-1.4,3.7-2.8,5.4-4.3
		c1.5-1.4,2.8-3.1,4.4-4.3c3.5-2.8,7.5-5,10.3-8.7c0.2,0.3,0.4,0.5,0.5,0.8c4-4.1,7.9-8.1,11.8-12.2c0.2-0.2,0.4-0.7,0.3-1
		c-0.5-4.4-1.2-8.9-1.4-13.3c-0.3-5.9-0.4-11.9-0.5-17.9c0-0.6,0.2-1,0.8-1.3c1.2-0.6,2.3-1.4,3.5-2.1c9.1-5.7,18.8-9.4,29.5-10.6
		c4.8-0.5,9.6-1.6,14.1-3.5c9.5-3.9,17-10.4,23.5-18.2c7.1-8.5,12.5-18,16.6-28.2c0.1-0.1,0.1-0.3,0.1-0.6c-1.4,0.4-2.7,0.7-4.4,1.2
		C326.2,117.3,327.6,110.1,328.6,102.7z M225.6,109.1c-0.3-1.9-0.5-3.7-0.7-5.4c0.1,0,0.2-0.1,0.3-0.1c1.4,0.8,2.8,1.6,4.4,2.5
		C228.2,107.1,227,108,225.6,109.1z M234.2,119.4c-0.1,0.1-0.5,0.2-0.6,0.1c-2.8-1.4-4.9-3.4-6.4-6.4c3.6,0.3,6.9,1.1,9.9,3.1
		C236.1,117.4,235.1,118.4,234.2,119.4z M262.8,110.6c1.9-0.7,3-0.4,3.9,1.2C265.2,112.5,263.7,112,262.8,110.6z M276.4,127.1
		c-0.5,0.1-1.1,0.3-1.6,0.5c-1.8,0.7-3.1,0.3-4.5-1.5c3.3,0,6.5,0,9.6,0c0,0,0,0.1,0,0.1C278.8,126.5,277.6,126.8,276.4,127.1z
		 M269.3,124c0.4-0.7,0.7-1.3,1-1.9c0.7-1.1,1.4-2.3,2.2-3.4c0.3-0.3,0.9-0.6,1.3-0.6c1.1,0,2.1,0.2,3.2,0.3c0-0.1,0.1-0.1,0.1-0.2
		c-0.8-0.6-1.7-1.1-2.5-1.7c1.3-1.3,2.7-2.2,4.4-2.3c0.4,0,0.9,0.2,1.1,0.4c0.9,1.1,1.9,2.2,2.5,3.5c1,2.2,1.8,4.6,2.6,6.9
		c0.1,0.2,0.1,0.5,0.1,0.9C280.1,124.4,274.9,123.9,269.3,124z"/>
</g>
</svg>
